<?xml version="1.0" encoding="UTF-8" standalone="no"?>
<svg
   xmlns:dc="http://purl.org/dc/elements/1.1/"
   xmlns:cc="http://creativecommons.org/ns#"
   xmlns:rdf="http://www.w3.org/1999/02/22-rdf-syntax-ns#"
   xmlns:svg="http://www.w3.org/2000/svg"
   xmlns="http://www.w3.org/2000/svg"
   xmlns:sodipodi="http://sodipodi.sourceforge.net/DTD/sodipodi-0.dtd"
   xmlns:inkscape="http://www.inkscape.org/namespaces/inkscape"
   width="200px"
   height="200px"
   viewBox="0 0 200 200"
   version="1.1"
   id="svg2"
   inkscape:version="0.91 r13725"
   sodipodi:docname="CartoDB Isotype-White.svg">
  <metadata
     id="metadata16">
    <rdf:RDF>
      <cc:Work
         rdf:about="">
        <dc:format>image/svg+xml</dc:format>
        <dc:type
           rdf:resource="http://purl.org/dc/dcmitype/StillImage" />
        <dc:title>Isotype Positive@2x</dc:title>
      </cc:Work>
    </rdf:RDF>
  </metadata>
  <sodipodi:namedview
     pagecolor="#ffffff"
     bordercolor="#666666"
     borderopacity="1"
     objecttolerance="10"
     gridtolerance="10"
     guidetolerance="10"
     inkscape:pageopacity="0"
     inkscape:pageshadow="2"
     inkscape:window-width="708"
     inkscape:window-height="480"
     id="namedview14"
     showgrid="false"
     inkscape:zoom="1.18"
     inkscape:cx="100"
     inkscape:cy="100"
     inkscape:window-x="630"
     inkscape:window-y="294"
     inkscape:window-maximized="0"
     inkscape:current-layer="svg2" />
  <!-- Generator: Sketch 3.6.1 (26313) - http://www.bohemiancoding.com/sketch -->
  <title
     id="title4">Isotype Positive@2x</title>
  <desc
     id="desc6">Created with Sketch.</desc>
  <defs
     id="defs8" />
  <g
     style="fill:#ffffff;fill-opacity:1;fill-rule:evenodd;stroke:none;stroke-width:1"
     transform="translate(-200,-200)"
     id="Isotype-Positive">
    <path
       inkscape:connector-curvature="0"
       style="fill:#ffffff;fill-opacity:1"
       id="path12"
       d="M 200,220.00013 C 200,208.95436 208.94947,200 220.00013,200 l 159.99974,0 C 391.04564,200 400,208.94947 400,220.00013 l 0,159.99974 C 400,391.04564 391.05053,400 379.99987,400 l -159.99974,0 C 208.95436,400 200,391.05053 200,379.99987 l 0,-159.99974 0,0 z m 94.06196,128.67336 c -6.24909,0 -6.6731,0.78735 -6.6731,0.78735 l 1.53491,9.61668 c 0,0 1.36636,0.92248 4.93569,0.92248 3.56933,0 4.73336,-0.92248 4.73336,-0.92248 l 2.10267,-9.56413 c 0,0 -0.38427,-0.8399 -6.63353,-0.8399 l 0,0 z m 43.07479,-71.29912 -0.34255,-0.26831 c 0,0 0.60932,-0.28493 0.94055,-0.60367 0.64732,-0.62421 1.0239,-1.40435 0.89526,-1.31808 -1.11098,0.74241 -3.28181,0.38078 -3.28181,0.38078 0,0 0.75134,-0.13882 1.19608,-0.42564 0.67955,-0.43693 0.87635,-1.04084 0.79298,-0.98273 -0.54306,0.37121 -1.13172,0.48024 -1.54036,0.48024 -2.56641,0.008 -2.98273,-2.19948 -5.35986,-2.19948 -0.97648,0 -3.02999,0.99935 -3.66781,0.008 -3.49737,-8.30252 -8.76445,-20.30431 -13.89892,-32.44501 -21.20241,4.29369 -30.62922,39.98057 -10.01349,46.31993 -11.20966,-3.19685 -16.6357,-14.15445 -14.93613,-23.67756 -7.67437,2.61185 -17.67084,6.6901 -25.47765,16.1082 -4.67849,5.64377 -4.65941,11.67945 -4.65941,23.62125 -0.231,3.67152 -3.28363,5.06809 -3.28363,5.06809 0,0 3.63749,0.15021 4.79945,-1.70442 5.00964,8.46762 29.19462,30.25135 29.19462,35.23162 0,0 -0.86685,2.33805 -0.60189,2.36989 2.20124,0.25506 12.44747,0.7596 12.44747,0.7596 0.44664,-1.69313 -0.58495,-2.8823 -0.58495,-4.07072 0,-12.11655 17.36432,-23.35531 19.40461,-24.73331 0.72862,0.42744 1.99848,0.80241 2.6211,1.07064 5.84616,2.51805 -0.92542,16.78504 -6.9854,16.78504 -6.9816,0 3.93839,-11.46197 4.158,-11.73568 0.72672,-0.90555 -1.25475,-0.0676 -1.88125,-0.67128 -0.38228,-0.3694 0.0473,-1.35745 -0.90469,-0.59065 0,0 -14.5008,12.4014 -4.24689,16.04983 19.43485,6.91708 47.86473,-37.57482 25.21657,-58.8261 l 0,0 z" />
  </g>
</svg>
